<svg width="22.000000" height="22.000000" viewBox="0 0 22 22" fill="none" xmlns="http://www.w3.org/2000/svg" xmlns:xlink="http://www.w3.org/1999/xlink">
	<desc>
			Created with Pixso.
	</desc>
	<defs/>
	<path id="Combined Shape" d="M19.7585 17.6902C21.1675 15.8433 22 13.5283 22 10.9995C22 4.92163 17.1113 0 10.9766 0C4.88794 0 0 4.92163 0 10.9995C0 13.5286 0.83252 15.8438 2.23828 17.6909C3.30005 16.0425 4.79419 14.7134 6.55859 13.8728C6.08643 13.0098 5.85742 12.0374 5.85742 10.9995C5.85742 9.50464 6.36401 8.05713 7.42529 6.99561C8.34766 5.8855 9.68506 5.3064 11.0227 5.3064C12.4526 5.3064 13.6985 5.8855 14.7126 6.99561C15.6814 8.05713 16.1887 9.4563 16.1887 10.9521C16.1887 12.0076 15.9517 13.0176 15.4922 13.9055C17.2349 14.7473 18.7085 16.0632 19.7585 17.6902ZM15.49 21.0557C15.2759 20.6311 15.0068 20.2358 14.6848 19.8799C13.7109 18.8047 12.5146 18.2437 11.1414 18.2437C9.85693 18.2437 8.57251 18.8047 7.68652 19.8799C7.30566 20.2644 6.99902 20.7009 6.7644 21.1729C8.05981 21.7065 9.48193 22 10.9766 22C12.5891 22 14.1157 21.6633 15.49 21.0557Z" clip-rule="evenodd" fill="#2F2F2F" fill-opacity="1.000000" fill-rule="evenodd"/>
</svg>
