<svg width="136.061890" height="26.367188" viewBox="0 0 136.062 26.3672" fill="none" xmlns="http://www.w3.org/2000/svg" xmlns:xlink="http://www.w3.org/1999/xlink">
	<desc>
			Created with Pixso.
	</desc>
	<defs/>
	<path id="Fill 1" d="M132.062 17.5127C133.169 17.5127 134.112 17.1206 134.892 16.3374C135.672 15.5535 136.062 14.6091 136.062 13.5027C136.062 12.3997 135.672 11.4604 134.892 10.6836C134.112 9.90747 133.169 9.51953 132.062 9.51953C130.964 9.51953 130.026 9.90747 129.25 10.6836C128.47 11.4636 128.08 12.4028 128.08 13.5027C128.08 14.6123 128.466 15.5574 129.239 16.3374C130.015 17.1206 130.956 17.5127 132.062 17.5127ZM129.636 11.0757C128.968 11.7463 128.635 12.5576 128.635 13.5078C128.635 14.4653 128.966 15.2817 129.631 15.9565Q130.124 16.4546 130.72 16.7075Q131.336 16.9685 132.062 16.9685C133.017 16.9685 133.828 16.6311 134.495 15.9565C135.162 15.2817 135.496 14.4653 135.496 13.5078C135.496 12.5576 135.162 11.7463 134.495 11.0757C133.824 10.4009 133.013 10.0635 132.062 10.0635C131.116 10.0635 130.307 10.4009 129.636 11.0757ZM133.184 11.4565C132.929 11.3513 132.531 11.2986 131.986 11.2986L130.452 11.2986L130.452 15.6841L131.224 15.6841L131.224 13.9597L131.834 13.9597C132.244 13.9597 132.531 14.0066 132.694 14.1008C132.97 14.2632 133.108 14.5979 133.108 15.1042L133.108 15.4514L133.124 15.5918C133.128 15.6101 133.131 15.6262 133.135 15.6411C133.138 15.6555 133.142 15.6699 133.146 15.6841L133.869 15.6841L133.842 15.6301C133.824 15.5938 133.811 15.5178 133.804 15.4021C133.797 15.2856 133.793 15.1772 133.793 15.0757L133.793 14.7546C133.793 14.5342 133.714 14.3074 133.555 14.0754C133.396 13.844 133.145 13.7004 132.802 13.6465C133.073 13.6023 133.284 13.532 133.436 13.4338C133.721 13.2485 133.864 12.96 133.864 12.5681C133.864 12.0161 133.637 11.6458 133.184 11.4565ZM131.885 11.8264C132.315 11.8264 132.627 11.8809 132.821 11.9895C133.015 12.0981 133.113 12.3125 133.113 12.6318C133.113 12.969 132.962 13.1973 132.66 13.3174C132.496 13.3826 132.251 13.415 131.923 13.415L131.224 13.415L131.224 11.8264L131.885 11.8264Z" clip-rule="evenodd" fill="#1E1E1E" fill-opacity="1.000000" fill-rule="evenodd"/>
	<mask id="mask423_43" mask-type="alpha" maskUnits="userSpaceOnUse" x="0.000000" y="0.000000" width="19.991455" height="19.991943">
		<path id="Clip 4" d="M0 0L19.99 0L19.99 19.99L0 19.99L0 0Z" fill="#000000" fill-opacity="1.000000" fill-rule="evenodd"/>
	</mask>
	<g mask="url(#mask423_43)">
		<path id="Fill 3" d="M0.00012207 9.99609C0.00012207 4.4751 4.47473 -0.000244141 9.99585 -0.000244141C15.5162 -0.000244141 19.9916 4.4751 19.9916 9.99609C19.9916 15.5166 15.5162 19.9917 9.99585 19.9917C4.47473 19.9917 0.00012207 15.5166 0.00012207 9.99609ZM5.04797 9.99609C5.04797 12.728 7.26318 14.9434 9.99585 14.9434C12.7284 14.9434 14.9436 12.728 14.9436 9.99609C14.9436 7.26343 12.7284 5.04834 9.99585 5.04834C7.26318 5.04834 5.04797 7.26343 5.04797 9.99609Z" clip-rule="evenodd" fill="#FF5758" fill-opacity="1.000000" fill-rule="evenodd"/>
	</g>
	<mask id="mask423_48" mask-type="alpha" maskUnits="userSpaceOnUse" x="24.866089" y="9.519287" width="18.088867" height="16.847900">
		<path id="Clip 7" d="M24.86 9.51L42.95 9.51L42.95 26.36L24.86 26.36L24.86 9.51Z" fill="#000000" fill-opacity="1.000000" fill-rule="evenodd"/>
	</mask>
	<g mask="url(#mask423_48)">
		<path id="Fill 6" d="M24.86 22.58L27.79 20.1C29.28 21.88 31.54 22.83 34.84 22.83C37.07 22.83 38.05 22.36 38.05 21.37C38.05 20.48 37.58 20.13 35.76 19.94L31.54 19.53C27.66 19.05 25.81 17.43 25.81 14.63C25.81 11.39 28.8 9.51 34.14 9.51C37.99 9.51 41.11 10.6 42.89 12.53L40.34 15.14C38.72 13.68 36.72 12.98 33.86 12.98C31.76 12.98 30.77 13.39 30.77 14.31C30.77 15.08 31.35 15.46 32.81 15.62L37.48 16.09C41.39 16.54 42.95 18.16 42.95 20.96C42.95 24.33 40.12 26.36 34.59 26.36C30.17 26.36 26.83 25.06 24.86 22.58Z" fill="#000000" fill-opacity="1.000000" fill-rule="evenodd"/>
	</g>
	<path id="Fill 9" d="M43.49 9.99L47.08 9.99L47.08 6.21L52.52 4.17L52.52 9.99L57.76 9.99L57.76 13.55L52.52 13.55L52.52 19.11C52.52 20.99 53.5 21.91 55.5 21.91C56.43 21.91 57.16 21.79 57.76 21.66L57.76 25.79C56.65 26.08 55.47 26.24 54.07 26.24C49.21 26.24 47.08 24.17 47.08 20.32L47.08 13.55L43.49 13.55L43.49 9.99Z" fill="#000000" fill-opacity="1.000000" fill-rule="evenodd"/>
	<mask id="mask423_52" mask-type="alpha" maskUnits="userSpaceOnUse" x="58.592529" y="9.519287" width="19.869141" height="16.847900">
		<path id="Clip 12" d="M58.59 9.51L78.46 9.51L78.46 26.36L58.59 26.36L58.59 9.51Z" fill="#000000" fill-opacity="1.000000" fill-rule="evenodd"/>
	</mask>
	<g mask="url(#mask423_52)">
		<path id="Fill 11" d="M68.5115 9.51953C62.7246 9.51953 58.5925 12.5396 58.5925 17.9116C58.5925 23.2839 62.7246 26.3674 68.5115 26.3674C74.2965 26.3674 78.4617 23.2839 78.4617 17.9116C78.4617 12.5396 74.2965 9.51953 68.5115 9.51953ZM68.5115 13.1746C71.2129 13.1746 72.9296 14.7969 72.9296 17.9116C72.9296 21.0264 71.2129 22.7119 68.5115 22.7119C65.8082 22.7119 64.0922 21.0264 64.0922 17.9116C64.0922 14.7969 65.8082 13.1746 68.5115 13.1746Z" clip-rule="evenodd" fill="#000000" fill-opacity="1.000000" fill-rule="evenodd"/>
	</g>
	<path id="Fill 14" d="M92.12 9.58C92.6 9.58 92.86 9.61 93.17 9.67L93.17 14.63C92.63 14.54 92.16 14.51 91.55 14.51C89.87 14.51 88.69 14.95 87.9 15.71C86.85 16.7 86.47 18.16 86.47 19.91L86.47 26.24L81.03 26.24L81.03 9.99L85.99 9.99L85.99 14.38C86.88 11.36 89.01 9.58 92.12 9.58Z" fill="#000000" fill-opacity="1.000000" fill-rule="evenodd"/>
	<path id="Fill 16" d="M100.71 9.99L100.71 13.17C101.79 10.72 103.76 9.51 106.59 9.51C109.39 9.51 111.26 10.72 112.22 13.2C113.52 10.75 115.65 9.51 118.45 9.51C122.42 9.51 124.64 11.99 124.64 16.48L124.64 26.24L119.21 26.24L119.21 17.46C119.21 14.85 118.19 13.58 116.16 13.58C114.03 13.58 112.76 15.05 112.76 17.56L112.76 26.24L107.32 26.24L107.32 17.46C107.32 14.85 106.3 13.58 104.27 13.58C102.14 13.58 100.87 15.08 100.87 17.65L100.87 26.24L95.43 26.24L95.43 9.99L100.71 9.99Z" fill="#000000" fill-opacity="1.000000" fill-rule="evenodd"/>
</svg>
